<mxfile host="app.diagrams.net" modified="2023-06-26T19:25:20.782Z" agent="Mozilla/5.0 (Windows NT 10.0; Win64; x64) AppleWebKit/537.36 (KHTML, like Gecko) Chrome/114.0.0.0 Safari/537.36" version="21.5.0" etag="q_Yx1WvCiTUoP4Z1D5DL" type="github">
  <diagram name="Page-1" id="Xi-5bBpfsiJFWyJQ8Kax">
    <mxGraphModel>
      <root>
        <mxCell id="0" />
        <mxCell id="1" parent="0" />
      </root>
    </mxGraphModel>
  </diagram>
</mxfile>
